<svg width="157" height="157" viewBox="0 0 157 157" fill="none" xmlns="http://www.w3.org/2000/svg">
<path fill-rule="evenodd" clip-rule="evenodd" d="M0 0H157V157H0V0Z" fill="white" fill-opacity="0.01"/>
<path d="M19.625 27.003L78.5283 9.81268L137.375 27.003V62.2562C137.375 99.3098 113.662 132.205 78.5086 143.919C43.3453 132.206 19.625 99.3026 19.625 62.2399V27.003Z" stroke="#6F0000" stroke-width="10.8947" stroke-linejoin="round"/>
<path d="M42 30H115.843V107.693H42V30Z" fill="white" fill-opacity="0.01"/>
<path d="M42 30H115.843V107.693H42V30Z" fill="white" fill-opacity="0.01"/>
<path d="M77.1803 69.3291C81.0913 73.368 82.6348 79.2905 81.2246 84.8484C79.8145 90.4063 75.6668 94.7471 70.3565 96.2232C65.0461 97.699 59.3873 96.0836 55.5283 91.9903C49.726 85.7027 49.809 75.7084 55.7149 69.5272C61.6207 63.3461 71.17 63.2593 77.1775 69.332L77.1803 69.3291Z" stroke="#6F0000" stroke-width="5" stroke-linejoin="round"/>
<path d="M77.3832 68.8467L103.536 41.3303" stroke="#6F0000" stroke-width="5" stroke-linecap="round" stroke-linejoin="round"/>
<path d="M88.6211 57.355L96.9722 66.0955L106.715 55.8983L98.3642 47.1578L88.6211 57.355Z" stroke="#6F0000" stroke-width="5" stroke-linejoin="round"/>
</svg>
